<svg xmlns="http://www.w3.org/2000/svg" version="1.1" xmlns:xlink="http://www.w3.org/1999/xlink" xmlns:svgjs="http://svgjs.dev/svgjs" width="1000" height="1000" viewBox="0 0 1000 1000"><rect width="1000" height="1000" fill="#ffffff"></rect><g transform="matrix(0.7,0,0,0.7,150.01325449251487,270.585910931174)"><svg viewBox="0 0 376 247" data-background-color="#ffffff" preserveAspectRatio="xMidYMid meet" height="656" width="1000" xmlns="http://www.w3.org/2000/svg" xmlns:xlink="http://www.w3.org/1999/xlink"><g id="tight-bounds" transform="matrix(1,0,0,1,-0.007119555979414827,-0.09999999999999432)"><svg viewBox="0 0 376.01423911195883 247.2" height="247.2" width="376.01423911195883"><g><svg viewBox="0 0 397.4975999999999 261.3236321902759" height="247.2" width="376.01423911195883"><g><rect width="397.4975999999999" height="8.0039977070459" x="0" y="143.61198033114104" fill="#000000" opacity="1" stroke-width="0" stroke="transparent" fill-opacity="1" class="rect-o-0" data-fill-palette-color="secondary" rx="1%" id="o-0" data-palette-color="#4b91f1"></rect></g><g transform="matrix(1,0,0,1,0.9887999999999693,172.56885161684113)"><svg viewBox="0 0 395.52 88.75478057343476" height="88.75478057343476" width="395.52"><g><svg viewBox="0 0 395.52 88.75478057343476" height="88.75478057343476" width="395.52"><g><svg viewBox="0 0 395.52 88.75478057343476" height="88.75478057343476" width="395.52"><g transform="matrix(1,0,0,1,0,0)"><svg width="395.52" viewBox="4 -38.349998474121094 170.88999938964844 38.349998474121094" height="88.75478057343476" data-palette-color="#286884"><path d="M19.35-37.9Q26.55-37.9 30.18-34.73 33.8-31.55 33.8-25.25L33.8-25.25Q33.8-19.1 30.18-15.9 26.55-12.7 19.35-12.7L19.35-12.7 13-12.7 13 0 4 0 4-37.9 19.35-37.9ZM19.35-20.3Q22.05-20.3 23.35-21.5 24.65-22.7 24.7-25.25L24.7-25.25Q24.7-27.9 23.4-29.1 22.1-30.3 19.35-30.3L19.35-30.3 13-30.3 13-20.3 19.35-20.3ZM65.25 0L62.6-7.7 47.95-7.7 45.3 0 36.3 0 49.55-38.35 60.95-38.35 74.25 0 65.25 0ZM50.55-15.4L60-15.4 55.25-29.2 50.55-15.4ZM93.09-37.9Q103.5-37.9 108.77-33.08 114.05-28.25 114.05-18.9L114.05-18.9Q114.05-9.5 108.8-4.75 103.55 0 93.09 0L93.09 0 79.75 0 79.75-37.9 93.09-37.9ZM104.95-19.05Q104.95-24.9 102.05-27.6 99.15-30.3 93.09-30.3L93.09-30.3 88.75-30.3 88.75-7.6 93.09-7.6Q99.25-7.6 102.09-10.33 104.95-13.05 104.95-19.05L104.95-19.05ZM128.79-7.2L145.09-7.2 145.09 0 119.79 0 119.79-37.9 144.84-37.9 144.84-30.7 128.79-30.7 128.79-22.65 142.34-22.65 142.34-15.45 128.79-15.45 128.79-7.2ZM161.09-7.7L174.89-7.7 174.89 0 152.09 0 152.09-37.9 161.09-37.9 161.09-7.7Z" opacity="1" transform="matrix(1,0,0,1,0,0)" fill="#000000" class="undefined-text-0" data-fill-palette-color="primary" id="text-0"></path></svg></g></svg></g></svg></g></svg></g><g transform="matrix(1,0,0,1,158.64588051695148,0)"><svg viewBox="0 0 80.20583896609698 122.65910675248685" height="122.65910675248685" width="80.20583896609698"><g><svg xmlns="http://www.w3.org/2000/svg" xmlns:xlink="http://www.w3.org/1999/xlink" version="1.1" x="8" y="0" viewBox="19.682355880737305 3.5 35.572967529296875 67.95874786376953" enable-background="new 0 0 75 75" xml:space="preserve" height="122.65910675248685" width="64.20583896609698" class="icon-icon-0" data-fill-palette-color="accent" id="icon-0"><path d="M21.2 59.5c-1.1-2.6-4.2-12.2 3.8-24.7C36 18 31.7 3.5 31.7 3.5S46 8.8 41.7 37.5c-1 6.5-0.9 9 2 9.4 5 0.7 3.1-19.7 3.1-19.7s3.9 2 6.8 12.1c1.5 5.3 1.8 9.5 1.6 12.5-1 18.1-16.5 19.6-16.5 19.6S26.9 73 21.2 59.5z" fill="#000000" data-fill-palette-color="accent"></path></svg></g></svg></g><g><rect width="76.08548040254678" height="8.0039977070459" y="113.65510904544095" x="238.85171948304844" fill="#000000" data-fill-palette-color="secondary"></rect><rect width="76.08548040254678" height="8.0039977070459" y="113.65510904544095" x="82.56040011440469" fill="#000000" data-fill-palette-color="secondary"></rect></g></svg></g><defs></defs></svg><rect width="376.01423911195883" height="247.2" fill="none" stroke="none" visibility="hidden"></rect></g></svg></g></svg>